<svg width="24" height="24" viewBox="0 0 24 24" fill="none" xmlns="http://www.w3.org/2000/svg">
<path d="M12 22C12 22 20 18 20 12V5L12 2L4 5V12C4 18 12 22 12 22Z" stroke="#9E3C3C" stroke-width="1.91667" stroke-linecap="round" stroke-linejoin="round"/>
<path d="M10.4832 13.0446L9.60872 12.0264L13.6575 8.39692H12.5914V7.24698H16.4006V8.39692H15.6938L10.4832 13.0446ZM7.81194 15.4163V14.2664H8.71033V8.39692H7.8359V7.24698H11.8607V8.39692H10.9863V14.2664H11.7529V15.4163H7.81194ZM12.4237 15.4163V14.2664H13.2143L11.3097 11.7389L12.9388 10.2895L16.0412 14.2664H16.6761V15.4163H12.4237Z" fill="#9E3C3C"/>
</svg>
